<?xml version="1.0" encoding="utf-8"?>
<svg xmlns="http://www.w3.org/2000/svg" xmlns:xlink="http://www.w3.org/1999/xlink" width="1024" height="1024" viewBox="0 0 1024 1024">
  <!-- Single color version for landing page -->
  <path transform="scale(2 2)" fill="currentColor" d="M250.035 129.645C251.015 126.102 252.258 120.663 254.042 117.513C254.785 116.202 280.155 116.831 275.879 97.3408C271.094 74.7042 236.922 82.0511 244.813 107.288C246.697 113.312 234.379 119.572 233.342 100.751C232.556 86.5088 243.576 74.4822 257.786 73.774C288.228 69.2216 300.279 122.295 261.342 126.578L260.581 129.645C284.77 131.416 295.218 139.581 313.268 152.497C322.372 147.941 326.239 140.487 328.387 130.776C329.724 124.997 332.355 114.03 341.326 121.106C359.52 135.457 351.529 165.864 339.474 181.992C373.026 228.527 390.752 304.164 372.986 358.663C350.982 426.163 275.602 453.084 211.137 431.261C108.307 394.175 119.65 271.698 164.939 193.745C167.316 189.654 169.89 185.185 173.388 181.992C161.216 169.425 154.937 145.985 163.571 129.851C174.635 111.211 180.527 116.07 184.622 135.154C186.514 143.974 191.371 148.029 198.518 152.497C215.792 140.998 226.682 130.876 250.035 129.645ZM173.388 133.392C165.303 146.362 172.155 161.95 178.863 173.53C180.513 171.499 181.119 170.605 183.243 169.077C185.597 165.391 187.742 163.45 190.546 160.268C183.347 154.409 178.077 149.474 175.524 140.315C175.21 139.191 173.975 133.881 173.388 133.392ZM338.375 133.392C334.963 146.665 331.811 151.723 321.225 160.268C324.632 163.303 326.631 165.634 329.53 169.077L333.31 173.53C340.173 162.647 343.439 153.113 340.679 139.999C340.349 138.433 339.452 134.478 338.375 133.392ZM254.091 140.02C224.88 140.707 199.784 161.512 183.403 184.401C142.842 241.077 117.981 344.905 176.306 398.802C197.287 418.191 230.513 430.037 259.063 427.988C303.242 427.411 344.804 403.73 360.875 361.582C385.072 298.123 357.835 211.843 312.073 165.365C300.514 153.545 270.988 136.026 254.091 140.02Z"/>
  <path transform="scale(2 2)" fill="currentColor" d="M212.126 210.422C206.48 210.458 201.865 205.928 201.797 200.283C201.729 194.638 206.233 189.998 211.878 189.898C217.567 189.798 222.252 194.346 222.32 200.035C222.389 205.725 217.816 210.385 212.126 210.422Z"/>
  <path transform="scale(2 2)" fill="currentColor" d="M301.129 210.385C295.512 210.905 290.536 206.77 290.019 201.152C289.502 195.534 293.639 190.561 299.257 190.046C304.872 189.532 309.84 193.666 310.357 199.28C310.874 204.894 306.743 209.865 301.129 210.385Z"/>
  <path transform="scale(2 2)" fill="currentColor" d="M317.27 344.446L209.569 344.455C184.857 344.482 180.297 343.418 180.421 316.872L180.432 257.814C180.428 244.597 177.158 227.469 194.606 224.243C200.551 223.934 209.743 224.233 215.968 224.235L295.705 224.234C306.665 224.233 328.245 221.617 330.752 236.81C331.893 243.718 331.401 252.613 331.403 259.795L331.408 316.491C331.454 328.974 332.457 340.181 317.27 344.446ZM196.757 234.468C188.357 235.491 190.518 245.795 190.533 252.393L190.546 330.521C195.892 336.626 209.897 334.223 218.174 334.22L296.92 334.22C301.651 334.222 310.948 334.521 315.369 334.214C324.026 331.226 321.229 318.029 321.233 309.766L321.236 256.446C321.234 251.512 323.524 232.896 314.123 234.516L211.996 234.457C207.856 234.453 200.694 234.223 196.757 234.468Z"/>
  <path transform="scale(2 2)" fill="currentColor" d="M228.72 282.536C226.315 285.82 221.667 294.238 218.296 295.398C213.662 296.994 209.364 290.838 213.311 286.378C216.593 282.668 223.048 270.598 227.84 269.558C233.254 269.886 239.427 278.672 242.953 282.536C257.503 266.171 255.7 265.078 269.521 282.536C272.864 278.717 281.225 264.837 287.182 272.151C291.323 277.235 295.796 282.663 299.29 288.208C302.133 293.215 295.008 300.015 288.899 291.533C286.792 288.606 284.732 285.854 282.288 283.205C268.567 297.511 270.462 302.334 256.366 282.536C240.35 301.534 244.334 297.837 228.72 282.536Z"/>
  <path transform="scale(2 2)" fill="currentColor" d="M208.292 400.655C197.623 402.099 187.809 394.604 186.394 383.931C184.979 373.259 192.501 363.466 203.178 362.08C213.813 360.699 223.561 368.185 224.97 378.817C226.38 389.449 218.92 399.217 208.292 400.655ZM205.074 372.337C200.058 372.726 196.321 377.131 196.754 382.144C197.188 387.157 201.626 390.855 206.635 390.377C211.581 389.905 215.224 385.535 214.795 380.584C214.367 375.633 210.029 371.952 205.074 372.337Z"/>
  <path transform="scale(2 2)" fill="currentColor" d="M309.125 400.466C298.536 401.921 288.779 394.498 287.355 383.904C285.931 373.311 293.382 363.575 303.98 362.182C314.534 360.794 324.222 368.208 325.64 378.759C327.058 389.309 319.672 399.018 309.125 400.466ZM305.09 372.409C300.155 373.169 296.776 377.793 297.549 382.726C298.322 387.658 302.954 391.026 307.885 390.241C312.798 389.458 316.151 384.846 315.381 379.931C314.611 375.016 310.007 371.651 305.09 372.409Z"/>
  <path transform="scale(2 2)" fill="currentColor" d="M258.619 415.223C248.125 416.573 238.524 409.159 237.176 398.665C235.828 388.17 243.244 378.571 253.739 377.226C264.23 375.88 273.826 383.294 275.174 393.785C276.521 404.276 269.11 413.873 258.619 415.223ZM254.465 387.614C249.702 388.526 246.565 393.106 247.434 397.877C248.304 402.647 252.855 405.826 257.633 405C262.473 404.163 265.702 399.54 264.821 394.708C263.941 389.876 259.289 386.689 254.465 387.614Z"/>
</svg>
