<?xml version="1.0" encoding="utf-8" ?><svg xmlns="http://www.w3.org/2000/svg" xmlns:xlink="http://www.w3.org/1999/xlink" width="1024" height="1024" viewBox="0 0 1024 1024"><path transform="scale(2 2)" d="M261.762 112.023C263.165 108.753 264.85 105.886 266.519 102.749L272.589 91.178C274.988 86.6347 278.295 77.7754 282.796 75.7516C290.008 75.5796 294.892 91.2273 298.94 97.7489C318.24 97.3101 317.93 117.293 308.294 121.544C296.472 126.759 285.781 117.09 290.465 104.712C287.785 101.364 286.084 97.6843 283.63 94.079L270.407 118.384C283.477 128.292 285.858 142.459 283.63 157.545C290.91 159.393 299.373 164.168 305.677 168.286C399.714 229.719 409.133 415.352 272.902 434.532C269.424 435.021 265.55 435.259 262.148 435.933L261.762 436.011C257.951 435.791 254.132 436.126 250.323 436.134C193.525 436.25 139.46 405.607 128.525 346.982C90.5424 339.611 86.6414 284.726 126.54 275.762C135.59 229.256 161.654 176.531 208.819 158.951C201.111 126.803 230.013 102.785 261.762 112.023ZM246.665 120.358C228.593 121.666 217.413 135.888 218.918 153.692L219.081 155.442C236.923 151.049 249.234 150.118 267.441 152.881C269.355 153.232 271.53 153.684 273.442 153.904C274.171 143.094 273.231 136.226 265.423 128.183C263.083 132.163 260.723 136.136 258.521 140.189C254.876 146.899 245.824 144.073 248.131 137.179C250.345 132.106 253.328 126.939 256.047 122.049C252.328 120.569 250.707 120.426 246.665 120.358ZM242.554 162.492C235.944 163.157 229.865 164.693 223.633 165.406C231.15 174.361 239.016 177.515 250.632 176.664C258.889 175.223 264.673 171.489 269.505 164.586L269.651 164.374C259.087 162.656 253.296 162.2 242.554 162.492ZM280.512 168.01C263.386 193.827 230.928 195.538 212.658 169.404C121.647 207.871 98.2732 384.962 206.948 418.582C266.8 437.268 339.658 417.571 358.318 352.271C370.303 310.333 364.082 266.269 344.056 227.604C331.396 203.452 307.408 176.648 280.512 168.01ZM124.271 287.267C107.724 296.574 102.875 315.566 117.337 329.426C119.648 331.434 123.045 333.811 125.643 335.517C124.272 321.736 122.585 309.85 124.207 295.786C124.368 294.386 125.217 288.166 124.271 287.267Z"/><path transform="scale(2 2)" d="M409.861 234.59C405.054 234.982 403.106 231.866 403.241 227.499C403.947 204.718 393.162 183.178 374.767 169.849C369.566 166.08 365.478 160.964 373.3 157.545C377.01 157.188 379.721 159.97 382.556 162.052C402.13 176.421 414.091 200.299 414.315 224.522C414.321 229.206 414.955 232.602 409.861 234.59Z"/><path transform="scale(2 2)" d="M377.944 229.958C376.894 224.566 377.979 218.829 375.901 212.675C369.927 194.987 357.259 190.944 355.504 186.934C353.914 183.3 356.968 180.397 359.894 179.522C368.445 179.291 381.831 196.662 384.521 204.151C386.994 211.036 393.44 228.909 384.181 232.722C380.782 232.972 380.032 232.453 377.944 229.958Z"/><path transform="scale(2 2)" d="M200.291 335.517C179.544 337.6 181.379 314.068 179.658 299.732L172.946 243.232C170.466 222.658 177.153 219.966 195.916 217.523L256.863 209.735C267.948 208.271 279.389 206.537 290.465 205.349C305.376 202.91 307.734 217.678 308.9 227.988L317.595 303.14C320.132 321.651 303.351 321.784 289.707 323.606L228.385 331.926C219.834 333.127 208.831 334.855 200.291 335.517ZM290.465 216.348L216.422 226.08C206.743 227.363 196.895 228.231 187.245 229.734C184.098 230.228 182.791 233.382 183.105 236.244L189.198 287.603C189.952 294.349 191.03 321.429 195.878 324.744C197.359 324.799 198.822 324.91 200.291 324.744C204.98 323.861 209.845 323.296 214.59 322.686L294.494 311.825C300.959 310.946 307.424 311.926 306.858 304.115C306.417 298.033 305.658 291.93 304.949 285.868L298.382 229.84C297.677 223.969 298.486 215.498 290.465 216.348Z"/><path transform="scale(2 2)" d="M242.554 296.956C242.992 289.35 241.804 279.846 241.636 272.11C241.367 259.774 239.061 261.068 251.068 255.966L275.218 245.708C277.875 244.587 281.515 242.912 284.249 242.302C288.674 242.215 289.587 245.235 290.008 248.852C290.537 253.388 292.899 287.271 292.247 289.215C291.007 292.916 277.251 298.463 274.527 297.685C271.793 296.905 269.584 293.416 270.583 290.632C271.852 287.094 277.891 285.355 281.116 283.867C281.449 275.435 279.465 264.407 279.993 255.885C270.901 258.349 261.007 264.249 252.223 267.467C252.272 269.628 252.426 270.678 252.797 272.823C252.134 282.211 254.176 292.359 253.654 301.838C253.433 305.846 246.51 307.522 243.459 309.324C233.534 315.186 230.189 305.25 234.153 301.891C236.233 300.068 239.823 298.441 242.554 296.956Z"/><path transform="scale(2 2)" d="M304.385 374.588C294.792 375.936 285.925 369.249 284.584 359.655C283.243 350.062 289.937 341.199 299.531 339.866C309.116 338.533 317.967 345.219 319.306 354.802C320.646 364.385 313.967 373.241 304.385 374.588ZM300.348 350.821C298.067 351.429 296.29 353.216 295.695 355.5C295.101 357.784 295.781 360.211 297.475 361.854C299.17 363.496 301.617 364.1 303.882 363.435C307.321 362.424 309.309 358.835 308.342 355.383C307.375 351.931 303.812 349.898 300.348 350.821Z"/><path transform="scale(2 2)" d="M206.616 383.966C196.822 385.454 187.671 378.737 186.155 368.947C184.639 359.158 191.33 349.987 201.115 348.443C210.94 346.893 220.156 353.617 221.678 363.446C223.2 373.276 216.45 382.472 206.616 383.966ZM202.617 359.476C200.16 359.922 198.147 361.681 197.375 364.056C196.602 366.43 197.196 369.037 198.921 370.843C200.645 372.649 203.222 373.362 205.629 372.7C209.132 371.737 211.255 368.188 210.448 364.647C209.642 361.106 206.19 358.827 202.617 359.476Z"/><path transform="scale(2 2)" d="M257.868 403.864C245.072 406.217 232.8 397.723 230.494 384.918C228.189 372.113 236.727 359.872 249.541 357.614C262.288 355.367 274.452 363.852 276.745 376.591C279.039 389.33 270.598 401.524 257.868 403.864ZM251.669 368.487C244.953 369.669 240.43 376.026 241.516 382.759C242.601 389.491 248.893 394.105 255.64 393.116C260.093 392.464 263.848 389.464 265.469 385.267C267.09 381.069 266.325 376.324 263.467 372.849C260.609 369.373 256.101 367.706 251.669 368.487Z"/></svg>