<?xml version="1.0" encoding="utf-8" ?><svg xmlns="http://www.w3.org/2000/svg" xmlns:xlink="http://www.w3.org/1999/xlink" width="1024" height="1024" viewBox="0 0 1024 1024"><path transform="scale(2 2)" d="M370.624 180.617C348.881 181.083 330.883 163.821 330.441 142.078C330 120.334 347.281 102.355 369.026 101.938C390.736 101.521 408.68 118.77 409.121 140.479C409.562 162.189 392.333 180.152 370.624 180.617ZM366.758 113.027C351.112 114.694 339.786 128.74 341.473 144.384C343.161 160.028 357.221 171.336 372.863 169.628C388.477 167.924 399.759 153.895 398.075 138.279C396.391 122.663 382.376 111.362 366.758 113.027Z"/><path transform="scale(2 2)" d="M248.729 117.348C244.938 119.03 239.313 123.696 235.036 122.481C232.23 121.683 230.823 117.836 231.887 115.261C233.21 112.061 249.653 104.269 253.42 102.779C257.315 102.302 259.579 104.523 259.557 108.51C259.501 118.827 260.074 130.304 259.413 140.535C259.08 145.695 249.107 146.744 248.805 139.403C248.68 136.357 248.694 132.542 248.729 129.222L248.729 117.348Z"/><path transform="scale(2 2)" d="M366.345 134.362C353.921 135.719 360.623 126.64 367.44 125.047C378.5 123.659 385.511 134.191 376.307 140.041C394.806 150.296 360.375 167.212 359.231 147.801C360.154 145.282 364.181 146.23 366.345 146.342C369.131 157.592 379.522 143.766 367.44 143.177C367.061 139.359 366.515 138.602 370.567 137.874C374.485 132.789 370.324 127.135 366.345 134.362Z"/><path transform="scale(2 2)" d="M186.373 279.127C180.023 269.514 181.543 264.343 181.56 253.27L181.558 199.831C181.557 182.003 182.721 164.23 205.04 161.635C208.043 161.304 216.084 161.63 219.691 161.64L298.315 161.601C322.924 161.729 325.311 181.098 325.287 200.748L325.318 255.884C325.325 265.765 326.603 270.663 320.822 279.127L359.047 279.124C370.33 279.112 383.9 277.034 392.695 285.752C398.185 291.194 400.44 297.39 400.453 305.045L400.468 376.483C400.442 393.802 393.545 410.736 373.51 410.614L295.642 410.557C262.393 410.662 261.569 397.533 261.572 367.131L261.562 326.915L261.562 290.064C255.56 289.975 249.323 290.063 243.302 290.064L243.312 375.546C243.318 386.419 243.704 394.526 235.463 402.969C225.2 413.484 209.429 410.538 195.534 410.539L135.698 410.544C132.016 410.566 126.515 410.929 123.069 410.231C109.529 407.488 102.477 396.243 102.453 383.273L102.438 313.385C102.461 287.374 110.619 278.861 136.712 279.124L186.373 279.127ZM206.967 172.259C190.854 174.875 192.456 188.466 192.463 200.399L192.479 253.373C192.489 275.383 194.057 279.221 217.106 279.157L300.229 279.127C316.184 276.894 314.456 265.18 314.452 252.807L314.462 201.308C314.465 173.477 311.533 172.259 286.835 172.253L224.946 172.25C219.667 172.251 211.971 171.995 206.967 172.259ZM130.087 290.064C114.232 290.774 113.472 299.899 113.459 313.892L113.453 366.161C113.455 374.553 111.737 387.359 116.783 394.155C121.858 400.992 130.61 399.751 138.181 399.754L217.227 399.748C232.483 398.679 232.489 387.006 232.499 374.541L232.496 290.064L130.087 290.064ZM272.337 290.064L272.335 374.956C272.342 388.889 272.789 399.888 290.103 399.883L365.097 399.755C372.64 399.754 378.541 400.656 384.313 394.805C390.766 387.332 389.478 380.243 389.47 370.923L389.47 318.655C389.503 292.462 389.356 290.013 364.686 290.052L272.337 290.064Z"/><path transform="scale(2 2)" d="M241.29 208.642C242.982 202.31 245.036 199.017 251.736 197.305C259.758 196.757 264.083 201.162 265.946 208.642C268.025 208.847 270.511 209 272.484 209.501C284.522 212.553 284.008 226.029 273.558 232.418C274.77 236.434 276.171 239.343 275.382 243.618C273.344 254.66 262.672 254.701 254.908 249.249L253.42 248.161C247.508 252.119 240.587 256.136 234.185 249.428C228.981 243.976 232.281 238.88 232.486 232.795L232.496 232.418C220.304 221.598 224.671 209.178 241.29 208.642ZM253.42 207.873C251.371 211.746 252.526 217.267 246.431 219.421C245.905 219.607 234.912 220.045 237.267 221.848C248.057 230.107 243.232 231.676 242.117 242.083C246.997 240.119 248.129 237.446 253.42 237.062L253.778 237.075C259.154 237.32 261.653 241.709 263.9 241.156C264.979 238.958 260.603 232.505 263.658 227.748C265.743 224.5 268.409 222.94 270.639 220.199C249.174 219.012 260.249 214.268 253.42 207.873Z"/><path transform="scale(2 2)" d="M159.631 248.161L144.109 248.189C141.114 248.195 133.492 248.628 131.623 246.835C127.581 242.957 129.468 237.856 134.974 237.062C139.303 236.906 159.461 236.556 162.094 238.017C166.828 240.646 164.245 247.225 159.631 248.161Z"/><path transform="scale(2 2)" d="M373.282 249.249C370.277 249.53 349.111 249.512 346.682 248.887C341.007 247.426 341.578 240.256 346.452 238.24C353.887 238.157 361.328 238.259 368.766 238.222C378.001 238.177 379.087 245.937 373.282 249.249Z"/><path transform="scale(2 2)" d="M159.631 329.672C161.089 322.986 162.245 318.441 169.691 316.299C179.953 315.572 181.948 321.375 184.317 329.672C203.055 329.11 210.256 342.261 192.481 353.12C197.273 368.836 186.346 379.82 173.16 369.251L171.878 367.904C169.745 369.449 167.136 371.424 164.718 372.392C153.385 376.932 146.438 364.465 151.528 353.12C136.048 341.098 143.531 328.149 159.631 329.672ZM171.878 326.915L171.736 327.222C166.2 339.376 168.995 339.975 153.915 340.301C157.1 344.13 163.051 346.215 162.855 351.74C162.71 355.845 160.097 358.917 160.288 362.363L160.643 362.563C165.088 360.686 167.539 355.915 173.16 356.603L173.503 356.752C177.026 358.305 179.648 361.479 182.373 362.687L182.835 362.5C184.617 358.222 178.83 351.826 182.704 347.54C185.348 344.614 188.631 343.197 191.395 340.301C168.418 340.3 178.775 333.286 171.878 326.915Z"/><path transform="scale(2 2)" d="M318.829 329.672C321.097 323.316 321.243 319.331 328.727 317.288C338.556 316.381 340.45 321.928 343.265 329.672C359.417 327.978 367.213 342.265 352.466 353.12C351.989 359.63 354.867 367.897 346.98 371.281C341.702 373.547 337.188 371.239 332.345 369.251C330.083 367.187 327.731 369.944 325.46 371.095C314.832 376.487 306.894 366.167 311.408 354.248C307.729 350.545 302.561 347.233 302.643 341.527C302.796 330.836 310.96 329.886 318.829 329.672ZM330.81 327.918C326.736 339.33 325.359 341.419 312.763 340.301C315.762 344.035 320.495 347.055 322.461 350.592C322.15 354.707 320.914 357.588 319.952 361.503C324.144 358.965 326.096 357.073 330.81 355.749C334.149 355.562 338.73 359.541 341.197 361.503C341.299 358.167 340.302 352.622 340.661 350.037C340.843 348.725 348.029 342.527 349.484 340.301C332.475 340.731 337.476 339.076 330.81 327.918Z"/></svg>