<?xml version="1.0" encoding="utf-8" ?><svg xmlns="http://www.w3.org/2000/svg" xmlns:xlink="http://www.w3.org/1999/xlink" width="1024" height="1024" viewBox="0 0 1024 1024"><path transform="scale(2 2)" d="M261.97 423.487C255.42 423.503 248.625 423.583 242.169 423.048C154.153 415.744 90.4052 339.419 106.83 251.251C108.679 241.328 109.857 237.787 110.578 227.378C115.803 151.991 175.188 93.7514 249.89 88.0151C329.434 86.0927 396.259 149.851 401.588 229.402C402.204 238.591 402.813 241.921 404.637 250.878C416.725 307.949 391.361 368.498 341.727 399.51C316.536 415.25 291.982 422.114 261.97 423.487ZM251.101 97.7549C244.775 98.3211 238.872 98.7577 232.623 99.9983C118.928 122.569 79.6243 269.746 169.251 344.529C195.708 366.604 227.29 376.799 261.589 376.256C302.465 372.542 333.843 358.95 360.833 326.033C409.741 266.385 399.385 179.353 340.988 130.064C316.72 109.581 283.147 96.0376 251.101 97.7549ZM113.993 275.22C112.659 404.314 271.342 457.803 359.344 372.771C378.331 354.425 391.906 327.228 395.964 301.058C397.439 292.208 398.097 284.217 397.787 275.22C375.229 354.431 297.433 403.474 216.624 380.37C165.603 365.782 128.88 326.915 114.71 276.255C114.565 275.739 114.379 275.55 113.993 275.22Z"/><path transform="scale(2 2)" d="M173.003 178.762C161.957 172.909 157.576 160.156 165.91 149.601C171.659 143.157 177.489 135.997 186.383 135.098C197.788 134.084 204.806 142.407 206.625 152.901C220.025 145.489 239.879 146.232 254.653 146.302C277.199 146.408 284.567 145.638 306.07 152.901C307.12 141.313 318.459 132.464 330.032 136.26C334.207 137.497 336.878 140.633 339.896 143.335C353.501 155.515 355.404 170.316 337.898 178.762C355.353 203.159 363.454 233.294 349.696 261.753C342.366 276.915 328.097 297.947 318.968 312.416L318.794 312.683C290.198 355.693 214.84 353.513 189.22 306.291C187.239 302.641 184.057 298.149 181.711 294.526L171.58 279.123C169.267 275.661 166.833 272.042 164.754 268.523C147.618 239.522 155.117 205.237 173.003 178.762ZM187.245 145.293C181.604 145.696 178.239 150.893 174.451 154.567C168.29 160.542 171.999 170.407 180.807 169.763C184.044 168.545 194.438 159.089 196.048 155.79C198.292 151.192 193.58 144.212 187.245 145.293ZM322.862 145.293C303.93 152.337 327.273 170.337 333.732 169.763C350.567 164.825 332.043 144.819 322.862 145.293ZM233.382 156.245C190.777 160.572 161.261 198.27 165.638 240.583C167.102 259.163 183.729 279.532 193.944 295.207C200.722 305.608 202.816 311.625 213.058 319.427C231.533 333.499 253.772 336.916 275.875 330.96C291.922 325.948 305.393 316.94 314.07 302.327L334.265 268.873C336.172 265.752 338.305 262.455 340.017 259.244C361.336 219.202 329.106 163.974 284.917 157.042C277.768 155.92 269.675 156.241 262.378 156.237L233.382 156.245Z"/><path transform="scale(2 2)" d="M252.331 203.419C252.221 192.639 245.419 177.099 260.448 173.305C270.18 172.608 278.242 182.717 284.681 189.693C296.177 190.734 319.401 184.263 314.001 206.055C313.281 208.959 302.822 217.382 300.412 221.257L300.224 221.562C298.55 233.279 305.612 254.402 286.892 254.874C278.682 254.347 271.67 243.514 266.887 237.395C256.356 238.907 239.491 244.551 235.433 230.29C232.068 218.466 247.416 212.215 252.331 203.419ZM261.97 182.932C257.081 186.698 264.934 201.778 260.952 208.477C256.946 215.216 249.031 220.607 244.5 227.103C245.364 228.409 245.797 229.017 247.133 229.877C253.034 229.651 269.507 226.064 273.199 230.032C277.539 234.696 281.264 239.944 285.671 244.576C293.448 251.033 289.26 221.996 290.868 217.527C292.531 212.903 305.341 204.021 305.301 200.892C302.999 197.401 286.211 200.651 281.065 198.582C275.782 196.459 265.97 183.158 261.97 182.932Z"/><path transform="scale(2 2)" d="M219.047 267.833C224.374 258.381 222.693 245.784 235.017 242.79C247.074 241.787 250.33 257.866 254.379 258.86C263.901 261.198 278.182 256.161 280.599 269.865C282.197 279.687 268.748 285.345 264.449 292.671C260.697 299.063 265.734 321.746 247.133 318.25C239.208 315.843 235.587 306.112 229.68 301.058C220.429 298.082 197.913 299.983 200.947 283.897C202.504 275.646 212.71 272.216 219.047 267.833ZM236.038 252.682C233.028 255.476 231.001 267.247 227.518 272.578C224.018 277.934 211.34 283.367 210.586 285.55C211.549 290.448 230.408 287.617 237.741 295.237C241.29 298.926 244.365 303.019 247.133 307.114C254.508 315.084 252.783 292.846 256.121 287.434C260.449 280.415 280.029 270.104 264.736 269.408C236.963 268.144 246.241 257.53 236.038 252.682Z"/><path transform="scale(2 2)" d="M351.816 371.233C350.21 370.874 347.765 369.911 347.53 368.016C346.879 362.755 345.283 353.546 351.816 352.587C358.005 353.028 358.973 369.332 351.816 371.233Z"/><path transform="scale(2 2)" d="M156.511 368.533C155.423 364.077 154.47 356.478 158.718 353.493C167.074 352.864 165.954 362.028 165.278 367.737C164.292 369.491 163.84 370.003 162.249 371.233C159.534 371.275 158.255 370.55 156.511 368.533Z"/></svg>