<?xml version="1.0" encoding="utf-8" ?><svg xmlns="http://www.w3.org/2000/svg" xmlns:xlink="http://www.w3.org/1999/xlink" width="1024" height="1024" viewBox="0 0 1024 1024"><path transform="scale(2 2)" d="M191.38 278.514C144.964 222.62 175.833 135.619 248.126 120.639C252.915 119.647 257.691 119.241 262.533 118.743C364.935 112.874 408.295 253.439 315.352 303.246C289.581 317.057 265.036 318.378 237.725 310.293L237.73 341.575C237.732 349.362 238.264 358.975 236.627 366.454C234.142 377.8 222.762 389.677 211.355 392.204C203.362 393.975 192.525 393.298 184.097 393.292L148.795 393.302L113.087 393.298C107.837 393.309 102.374 393.279 97.2648 393.343C75.0929 393.624 61.7638 376.734 61.6531 355.879L61.654 330.12C61.6378 314.339 59.7233 301.108 72.0426 288.974C82.7483 278.43 92.1802 278.497 106.052 278.506L191.38 278.514ZM268.317 129.042C219.648 128.83 180.047 168.16 179.925 216.829C179.803 265.499 219.205 305.027 267.875 305.059C316.417 305.092 355.82 265.814 355.942 217.272C356.064 168.729 316.859 129.254 268.317 129.042ZM97.5309 288.831C78.147 290.192 70.2205 304.674 72.0083 322.763C72.9965 339.663 67.3367 365.816 80.7825 377.075C90.1874 384.95 102.64 383.092 114.197 383.075L201.603 383.1C201.672 383.091 201.742 383.081 201.812 383.072C227.499 381.837 227.451 361.258 227.422 341.656L227.421 306.681C220.226 303.617 214.732 299.815 208.278 295.578C206.617 294.488 201.428 289.505 200.363 289.4C190.406 288.414 175.893 288.829 166.004 288.828L97.5309 288.831Z"/><path transform="scale(2 2)" d="M281.855 242.325C269.703 248.513 248.304 265.358 236.964 257.401C230.378 252.779 231.643 244.21 231.642 237.091L231.652 198.747C231.658 188.648 230.052 176.601 243.403 174.809C252.021 173.254 296.345 200.916 305.291 206.15C312.606 210.431 313.301 222.724 306.84 228.123C303.456 230.95 299.114 232.97 295.117 235.124L281.855 242.325ZM244.241 185.241C243.603 185.524 242.828 185.79 242.514 186.467C241.619 188.396 241.752 246.447 242.544 248.063C244.61 252.279 255.749 244.565 258.241 243.225L280.124 231.3C286.059 227.906 292.747 224.472 298.629 220.904C306.915 215.876 289.461 209.072 285.931 207.117L267.494 196.793C262.53 194.056 249.453 185.726 244.552 185.268L244.241 185.241Z"/><path transform="scale(2 2)" d="M90.5141 226.089L90.4958 207.112C90.4566 196.005 89.423 188.033 101.196 182.413C106.627 179.821 111.25 176.363 117.256 174.809C132.433 173.549 140.045 191.499 129.074 200.306C124.507 203.972 106.315 213.206 100.723 215.484L100.751 235.203C100.767 248.907 97.7089 265 79.0645 262.443C49.6888 257.756 61.6799 214.146 90.5141 226.089ZM118.649 185.241C107.742 190.706 101.522 190.848 100.723 203.34C101.94 202.781 103.771 202.001 104.909 201.379C110.329 198.68 116.16 196.093 121.31 192.976C125.49 190.446 123.754 184.998 118.649 185.241ZM79.101 234.844C74.3427 236.096 71.5013 240.969 72.7552 245.727C74.0091 250.485 78.8833 253.325 83.6407 252.07C88.3961 250.815 91.2344 245.943 89.9811 241.187C88.7277 236.432 83.8571 233.592 79.101 234.844Z"/><path transform="scale(2 2)" d="M409.704 276.661L409.683 256.013C409.675 241.985 408.401 237.861 422.229 231.706C427.518 229.352 428.906 226.723 435.638 226.089C445.799 225.78 452.685 235.222 449.772 244.742C447.318 252.763 427.954 261.297 420.199 265.256C420.189 271.916 420.049 279.103 420.397 285.732C420.619 288.303 421.835 291.058 422.09 293.559C424.631 318.608 386.418 321.403 383.849 299.22C370.826 299.544 372.698 308.843 372.711 318.239L372.711 343.106C372.708 348.505 372.922 355.252 372.104 360.459C369.265 378.523 351.161 388.938 333.921 385.789C311.653 380.15 301.373 354.785 315.493 336.013C326.745 321.054 347.707 320.243 362.229 331.461C362.197 315.241 358.418 286.982 383.849 288.831C387.564 276.799 398.694 273.715 409.704 276.661ZM435.638 236.228C426.188 240.878 418.781 242.012 420.199 253.311L422.82 252.033C427.938 249.144 433.671 246.504 438.499 243.299C441.507 241.301 439.995 236.533 435.638 236.228ZM401.142 285.853C396.17 286.526 392.663 291.072 393.275 296.052C393.887 301.032 398.39 304.595 403.377 304.044C406.658 303.682 409.491 301.584 410.793 298.55C412.095 295.517 411.665 292.017 409.668 289.389C407.67 286.761 404.414 285.41 401.142 285.853ZM340.245 333.904C328.511 334.157 319.201 343.87 319.444 355.605C319.688 367.339 329.393 376.657 341.128 376.423C352.876 376.189 362.207 366.47 361.963 354.722C361.719 342.974 351.993 333.651 340.245 333.904Z"/><path transform="scale(2 2)" d="M148.795 315.954C148.699 311.981 149.042 309.059 153.368 308.052C157.248 308.096 185.422 328.489 190.972 332.201C193.41 333.832 195.721 335.301 194.801 338.624C193.788 342.405 160.531 363.045 155.174 366.164C149.774 367.995 148.869 363.494 148.795 359.351C135.247 359.208 113.262 364.84 114.043 345.222C114.869 324.46 108.079 315.802 134.938 315.927L148.795 315.954ZM158.995 323.52C158.35 331.873 158.958 342.808 158.995 351.379L171.804 343.048C174.196 341.417 177.641 339.193 179.747 337.385C173.93 333.146 165.104 327.32 158.995 323.52ZM124.352 326.293C124.064 327.693 124.313 332.865 124.333 334.745L124.352 348.927L148.795 348.927C149.006 348.384 148.803 328.514 148.795 326.293C140.685 326.283 132.452 326.2 124.352 326.293Z"/></svg>