<?xml version="1.0" encoding="utf-8" ?><svg xmlns="http://www.w3.org/2000/svg" xmlns:xlink="http://www.w3.org/1999/xlink" width="1024" height="1024" viewBox="0 0 1024 1024"><path transform="scale(2 2)" d="M226.132 115.791C228.452 100.708 235.842 78.7265 252.87 75.5568C274.14 73.2487 282.275 99.6012 286.439 115.791C297.59 103.092 327.81 77.5799 340.775 101.155C347.717 113.779 343.785 130.734 340.072 143.986C356.056 139.955 389.766 134.33 388.847 160.859C388.359 178.954 371.832 195.008 358.021 204.894C352.881 208.574 344.026 200.851 354.716 193.685C362.537 188.443 373.552 176.483 376.593 167.527C385.912 140.085 343.618 154.514 331.684 158.243C329.652 158.804 326.645 157.013 326.022 155.148C324.445 150.427 347.241 96.3604 321.069 103.287C302.8 108.122 288.654 136.382 281 132.981C274.173 130.65 276.29 93.4608 257.951 86.6996C244.734 83.9813 238.57 108.485 236.468 117.76C235.575 121.706 234.638 137.998 226.506 132.714C223.608 130.831 221.231 126.811 218.927 124.202C213.803 118.4 192.098 97.0897 183.356 103.642C169.726 113.857 187.49 146.192 186.236 153.854C185.012 161.336 175.23 156.412 171.185 155.251C162.891 152.869 135.178 145.775 133.736 158.452C132.574 168.673 144.58 182.99 151.717 189.548C154.641 192.234 158.512 194.593 160.94 197.698C163.919 201.508 160.839 207.162 156.074 206.081C142.333 202.963 107.203 158.51 130.899 143.905C142.054 137.029 159.918 141.115 171.887 143.986C171.45 141.453 170.303 136.957 169.729 134.54C160.37 95.142 183.696 77.2435 215.419 105.34C218.877 108.403 222.897 111.992 226.132 115.791Z"/><path transform="scale(2 2)" d="M257.951 436.818C193.976 439.764 131.448 391.804 130.365 325.706C129.323 262.087 181.555 151.933 254.681 150.662C329.801 149.6 383.504 262.391 381.686 327.388C379.91 390.863 319.075 439.273 257.951 436.818ZM252.87 162.032C188.813 163.457 138.86 271.228 141.394 326.739C144.206 388.305 200.642 427.534 259.123 425.842L260.312 425.799C336.469 423.201 384.956 364.138 366.222 288.268C356.9 250.514 338.947 214.208 310.497 187.015C297.84 175.078 271.047 158.142 252.87 162.032Z"/><path transform="scale(2 2)" d="M114.577 189.052C111.499 189.955 108.274 188.181 107.389 185.098C106.504 182.015 108.297 178.8 111.385 177.932C114.448 177.072 117.631 178.847 118.509 181.905C119.387 184.963 117.631 188.157 114.577 189.052Z"/><path transform="scale(2 2)" d="M398.373 192.263C396.279 192.65 394.14 191.869 392.788 190.223C391.436 188.578 391.083 186.328 391.868 184.348C392.653 182.369 394.451 180.971 396.563 180.699C399.709 180.294 402.605 182.467 403.095 185.6C403.586 188.734 401.492 191.688 398.373 192.263Z"/><path transform="scale(2 2)" d="M121.399 210.586C119.395 211.113 117.262 210.521 115.815 209.038C114.368 207.554 113.829 205.408 114.405 203.417C114.981 201.426 116.582 199.898 118.598 199.416C121.667 198.683 124.754 200.556 125.522 203.616C126.289 206.677 124.451 209.785 121.399 210.586Z"/><path transform="scale(2 2)" d="M393.106 214.123C390.07 214.886 386.994 213.032 386.25 209.992C385.506 206.952 387.379 203.887 390.423 203.162C393.442 202.443 396.474 204.296 397.212 207.31C397.949 210.323 396.115 213.367 393.106 214.123Z"/><path transform="scale(2 2)" d="M306.491 221.931C296.467 222.607 295.873 211.861 304.166 210.784C313.475 210.076 314.284 220.141 306.491 221.931Z"/><path transform="scale(2 2)" d="M209.825 221.931C202.024 224.264 196.367 214.168 205.907 210.784C210.698 210.313 213.245 211.924 214.306 216.532C213.615 219.698 212.844 220.773 209.825 221.931Z"/><path transform="scale(2 2)" d="M233.858 221.931C224.86 224.09 222.12 213.488 229.831 210.784C238.931 209.987 241.851 219.027 233.858 221.931Z"/><path transform="scale(2 2)" d="M257.951 221.931C248.866 222.642 246.27 213.332 254.681 210.784C264.06 210.192 266.162 219.821 257.951 221.931Z"/><path transform="scale(2 2)" d="M282.957 221.931C273.947 222.778 270.423 214.566 278.579 210.784C283.63 210.214 286.199 211.601 287.296 216.532C286.655 219.348 285.619 220.791 282.957 221.931Z"/><path transform="scale(2 2)" d="M135.116 228.566C132.039 229.45 128.826 227.678 127.932 224.604C127.038 221.53 128.8 218.312 131.871 217.408C134.956 216.5 138.192 218.271 139.09 221.359C139.988 224.447 138.207 227.677 135.116 228.566Z"/><path transform="scale(2 2)" d="M377.389 232.042C375.263 232.357 373.134 231.494 371.828 229.788C370.522 228.082 370.244 225.802 371.102 223.832C371.961 221.862 373.82 220.513 375.959 220.309C379.15 220.004 382.003 222.297 382.391 225.479C382.778 228.661 380.559 231.573 377.389 232.042Z"/><path transform="scale(2 2)" d="M323.442 248.782C317.786 249.057 310.037 248.785 304.209 248.783L190.593 248.794C180.209 248.157 182.631 239.137 188.098 237.751L303.168 237.748C308.475 237.748 319.372 237.228 324.725 238.596C328.725 239.618 328.807 246.408 323.442 248.782Z"/><path transform="scale(2 2)" d="M231.907 300.28C235.796 293.41 249.187 264.841 254.681 263.022C259.788 262.705 260.808 266.054 263.097 270.023C268.857 280.008 274.664 289.985 279.854 300.28C291.039 302.67 302.163 306.44 313.216 309.411C317.892 310.668 320.907 310.796 322.339 315.782C320.915 321.671 300.133 341.05 294.667 347.271C295.103 353.713 299.982 384.338 298.914 387.892C296.582 395.653 286.76 389.404 282.402 387.47L267.731 381.003C263.651 379.215 259.955 377.463 255.683 376.172C254.081 376.226 224.8 389.637 221.284 391.017C209.218 395.755 213.634 379.496 214.349 373.97C215.495 365.113 216.487 356.067 218.047 347.271C209.566 338.181 201.054 329.24 192.222 320.484C182.66 311.004 200.889 308.25 206.374 306.83L231.907 300.28ZM255.683 279.869L242.901 303.53C236.475 315.494 219.602 313.315 205.907 318.941C237.337 346.242 228.534 341.086 225.371 377.032C233.66 373.453 247.636 366.266 255.683 364.351C261.486 365.156 280.296 374.486 286.439 377.032C286.055 368.121 280.505 345.463 286.121 339.939C292.887 333.284 299.35 325.079 306.491 318.941C299.722 317.315 273.909 311.626 270.894 306.615C269.396 304.126 256.944 280.822 255.683 279.869Z"/></svg>