<?xml version="1.0" encoding="utf-8" ?><svg xmlns="http://www.w3.org/2000/svg" xmlns:xlink="http://www.w3.org/1999/xlink" width="1024" height="1024" viewBox="0 0 1024 1024"><path transform="scale(2 2)" d="M357.312 407.964L174.716 407.969C166.939 407.969 157.552 408.402 149.977 407.279C128.63 404.113 111.058 385.839 109.034 364.298C108.563 359.278 108.696 354.216 108.699 349.153L108.701 160.494C108.703 155.788 108.558 151.005 109.104 146.346C112.098 120.797 131.317 106.211 155.455 103.749C170.055 103.448 185.656 103.749 200.349 103.75L336.345 103.749C353.343 103.73 368.538 102.007 383.084 113.152C401.563 127.311 403.571 141.659 403.572 162.787L403.573 348.887C403.572 353.481 403.753 358.422 403.238 362.969C400.256 388.47 381.847 404.654 357.312 407.964ZM163.147 112.935C138.986 113.066 118.117 125.271 117.875 152.272L117.831 353.223C117.853 361.189 118.396 368.837 121.978 376.045C133.562 399.352 152.003 398.869 173.62 398.852L348.497 398.844C370.19 398.734 389.878 387.776 393.606 364.625C394.743 357.57 394.266 347.655 394.266 340.299L394.272 152.488C394.192 138.24 386.015 125.32 373.65 118.258C361.991 111.599 351.088 112.924 338.149 112.928L163.147 112.935Z"/><path transform="scale(2 2)" d="M216.788 137.711C216.767 134.64 216.73 131.571 216.788 128.5L237.215 128.5L237.215 137.711L216.788 137.711Z"/><path transform="scale(2 2)" d="M249.757 137.711L249.757 128.5L272.673 128.5L272.673 137.711L249.757 137.711Z"/><path transform="scale(2 2)" d="M285.505 137.711L285.505 128.5L295.729 128.5L295.729 137.711L285.505 137.711Z"/><path transform="scale(2 2)" d="M340.102 333.885L175.441 333.892C164.706 333.892 147.646 337.999 147.587 323.809L147.546 185.416C147.533 158.853 143.862 157.016 173.897 157.094L335.869 157.079C347.441 157.076 364.508 153.354 364.526 169.574L364.514 306.844C364.533 331.407 365.657 334.057 340.102 333.885ZM159.764 166.276C157.629 166.62 156.537 166.563 156.515 169.131L156.495 324.482L351.985 324.482C355.327 323.942 355.455 322.256 355.47 319.075L355.488 184.319C355.487 178.892 355.709 173.06 355.03 167.679C354.709 165.137 327.036 166.27 323.743 166.27L159.764 166.276Z"/><path transform="scale(2 2)" d="M278.16 230.968C277.236 234.353 276.052 238.269 271.577 236.945C266.412 235.418 270.719 227.137 271.74 223.909C273.344 218.835 277.5 201.315 281.717 199.249C283.276 199.058 285.871 199.027 286.579 200.808C290.469 210.59 293.719 220.807 297.264 230.737C298.742 234.879 297.637 236.133 293.765 237.175C292.047 236.692 291.806 236.718 290.282 235.739C289.214 233.883 289.029 233.037 288.386 230.968L285.505 230.968L278.16 230.968ZM283.016 215.407C281.794 220.452 279.461 223.129 284.272 223.064L284.945 222.924C285.506 221.757 283.612 216.653 283.016 215.407Z"/><path transform="scale(2 2)" d="M193.07 207.756C182.652 207.979 183.068 200.876 188.459 199.249C192.385 199.216 205.418 198.314 208.115 200.395C209.824 201.714 210.119 204.937 208.606 206.522C207.08 208.12 203.813 207.727 201.754 207.756L201.754 233.313C201.444 235.669 199.913 237.202 197.44 237.319C191.723 237.587 193.058 227.944 193.057 223.723L193.07 207.756Z"/><path transform="scale(2 2)" d="M232.562 237.175C206.706 236.988 215.864 230.513 214.607 206.548C214.399 202.583 217.439 200.181 220.962 199.249C225.587 199.051 238.319 197.663 238.987 204.9C239.771 213.769 243.055 234.489 232.562 237.175ZM223.019 207.756L223.019 228.397L231.027 228.397C231.211 221.718 231.017 214.484 231.027 207.756C228.184 207.656 225.851 207.679 223.019 207.756Z"/><path transform="scale(2 2)" d="M252.416 207.756C242.369 207.705 241.494 200.675 247.558 199.249C250.612 199.237 274.438 196.949 267.192 205.855C265.666 207.731 262.826 207.573 260.62 207.756C260.5 216.172 260.618 224.873 260.62 233.313C260.409 236.263 259.442 236.298 256.927 237.175C250.66 235.361 252.391 229.662 252.397 223.854L252.416 207.756Z"/><path transform="scale(2 2)" d="M320.89 237.175C317.915 237.451 304.736 237.401 303.972 236.321C302.751 234.597 300.06 202.643 305.5 199.249C308.599 198.992 309.604 199.365 311.423 201.91C311.567 210.611 311.432 219.67 311.423 228.397C314.416 228.645 317.833 228.249 320.678 228.955C324.962 230.018 324.655 235.337 320.89 237.175Z"/><path transform="scale(2 2)" d="M96.6964 284.503C93.8344 284.341 92.1372 282.659 90.1033 280.829C71.5037 264.092 73.3448 227.908 94.8467 217.524C103.196 217.383 100.196 224.131 95.6375 228.526C84.1898 239.614 82.6057 258.526 93.4551 270.589C97.2436 274.801 104.769 280.053 96.6964 284.503Z"/><path transform="scale(2 2)" d="M416.592 284.503C402.447 284.205 421.347 269.111 423.594 263.751C428.313 252.496 426.609 239.658 418.689 230.29C416.084 227.224 406.036 220.694 416.592 217.524C417.201 217.528 418.07 217.754 418.578 218.081C435.261 228.831 439.931 252.744 430.932 269.928C428.288 274.976 421.955 282.777 416.592 284.503Z"/><path transform="scale(2 2)" d="M236.198 292.344C234.083 297.603 214.122 302.045 214.708 284.66C215.091 273.268 210.16 257.976 223.886 256.75C225.944 256.782 233.161 256.465 234.614 258.09C241.652 265.963 226.169 265.179 223.019 265.195C222.895 272.56 223.016 280.276 223.019 287.669C228.166 287.759 235.335 285.704 236.198 292.344Z"/><path transform="scale(2 2)" d="M260.62 296.433C236.409 296.849 242.803 287.67 242.981 265.246C243.018 260.68 245.447 257.914 249.757 256.75C254.391 256.653 266.759 255.475 267.321 262.77C267.894 270.223 267.464 277.81 267.562 285.292C267.63 290.464 266.87 295.604 260.62 296.433ZM251.534 265.195L251.534 287.669C254.268 287.744 256.521 287.766 259.265 287.669L259.265 265.195L251.534 265.195Z"/><path transform="scale(2 2)" d="M291.876 291.494C291.143 289.72 287.516 282.082 286.204 281.305C280.504 281.295 289.073 298.89 278.742 296.201C273.837 294.924 276.235 267.99 276.053 261.983C275.967 259.132 277.063 257.813 279.504 256.75C294.799 255.645 301.381 255.279 300.181 273.077C299.935 276.727 298.37 278.772 295.729 280.873C297.776 285.131 307.283 297.08 296.369 296.397C294.643 296.289 292.838 292.996 291.876 291.494ZM284.272 265.195C284.369 268.06 284.422 270.226 284.272 273.106C286.728 273.102 289.457 273.168 291.876 273.106L291.876 265.195C288.847 265.37 287.265 265.369 284.272 265.195Z"/><path transform="scale(2 2)" d="M319.188 287.669C322.071 287.685 326.242 287.122 328.904 288.185C332.277 289.531 332.748 294.585 329.221 295.957C327.14 296.766 312.814 296.783 310.917 295.793C307.055 293.777 308.716 284.018 308.714 280.414C308.709 273.81 308.348 266.97 308.826 260.389C309.05 257.3 311.662 257.072 314.272 256.75C317.061 256.744 329.616 255.935 330.915 258.047C336.953 267.871 321.833 265.798 316.742 265.758L316.742 272.251C319.435 272.281 323.59 271.608 325.853 273.083C327.703 274.296 327.755 278.163 326.235 279.566C324.217 281.429 319.372 280.883 316.742 280.873L316.742 287.669L319.188 287.669Z"/><path transform="scale(2 2)" d="M198.355 280.008C186.293 280.096 181.303 281.918 182.153 267.149C182.496 261.202 181.055 258.172 188.459 256.75C190.368 257.031 211.64 254.497 205.705 263.574C204.123 265.994 194.413 265.03 190.758 265.195L190.758 271.232C203.849 271.139 207.658 270.26 207.062 285.214C206.874 289.949 207.122 294.336 201.754 296.433C197.894 296.399 186.301 297.352 183.611 295.166C181.882 293.76 181.622 290.656 183.158 289.016C185.339 286.688 195.196 287.645 198.355 287.669L198.355 280.008Z"/><path transform="scale(2 2)" d="M260.153 389.631C248.358 391.306 237.441 383.097 235.774 371.301C234.108 359.505 242.325 348.594 254.122 346.936C265.907 345.28 276.805 353.486 278.47 365.27C280.134 377.054 271.935 387.958 260.153 389.631ZM256.676 356.03C249.95 356.311 244.72 361.982 244.983 368.709C245.246 375.436 250.903 380.681 257.63 380.437C264.384 380.191 269.654 374.508 269.39 367.755C269.127 361.002 263.429 355.747 256.676 356.03Z"/><path transform="scale(2 2)" d="M344.131 389.753C332.266 391.505 321.219 383.328 319.429 371.468C317.638 359.609 325.778 348.536 337.632 346.706C349.541 344.868 360.677 353.055 362.476 364.969C364.275 376.884 356.052 387.994 344.131 389.753ZM339.74 355.91C332.906 356.592 327.936 362.711 328.671 369.54C329.405 376.368 335.563 381.291 342.386 380.504C349.134 379.725 353.991 373.649 353.265 366.894C352.538 360.14 346.5 355.236 339.74 355.91Z"/><path transform="scale(2 2)" d="M174.809 390.053C162.942 391.113 152.465 382.344 151.418 370.475C150.371 358.607 159.151 348.139 171.02 347.105C182.872 346.073 193.32 354.836 194.365 366.686C195.411 378.537 186.659 388.994 174.809 390.053ZM171.552 356.422C164.845 357.139 159.989 363.158 160.708 369.866C161.427 376.573 167.448 381.427 174.155 380.706C180.86 379.986 185.711 373.968 184.993 367.263C184.274 360.558 178.257 355.705 171.552 356.422Z"/></svg>